<?xml version="1.0" encoding="utf-8"?>
<!-- Generator: Adobe Illustrator 16.0.4, SVG Export Plug-In . SVG Version: 6.00 Build 0)  -->
<!DOCTYPE svg PUBLIC "-//W3C//DTD SVG 1.1//EN" "http://www.w3.org/Graphics/SVG/1.1/DTD/svg11.dtd">
<svg version="1.1" id="Layer_1" xmlns="http://www.w3.org/2000/svg" xmlns:xlink="http://www.w3.org/1999/xlink" x="0px" y="0px"
	 width="5000px" height="5000px" viewBox="0 0 5000 5000" enable-background="new 0 0 5000 5000" xml:space="preserve">
<g id="Layer_1_1_" display="none">
	<g display="inline">
		<path fill="#EB8C00" d="M3030,4660c-680,30-1280,10-1850-70c-300-40-540-90-760-170c-20,0-20-10-10-30c30-270,100-500,240-710
			c90-140,190-230,320-280c40-20,80-40,130-50l160-70c230-100,460-210,690-320c20-10,30-10,40,0c300,210,640,210,920-10
			c0,0,0,0,10,10c50,30,100,60,160,80l80,40c50,30,100,20,140-10c30-20,40-60,40-100s-30-80-70-100c-50-30-100-50-150-80l-20-10
			c100-120,170-230,220-350c40-110,90-230,180-330c40-40,60-90,80-140l10-20c70-150,100-300,80-440c-10-70-20-150-90-200
			c-10-10-10-10-10-30c0-60,0-120,0-180V960c0-70-10-180-80-270c-50-60-80-130-110-200c-60-140-180-240-360-300
			c-240-90-510-110-800-60c-460,80-760,410-800,880c-10,80-10,160-10,240c0,40,0,90,0,130c0,10,0,20,0,20c-60,50-80,130-90,180
			c-30,200,10,400,140,580c110,160,180,290,240,420c30,60,60,110,100,160c10,10,20,20,20,30c-20,10-30,20-50,20
			c-60,30-130,70-200,90c-200,90-390,170-590,260l-110,50c-130,50-230,140-320,260c-210,290-330,620-350,990c0,100,20,120,100,160
			c210,80,440,140,740,190c440,70,910,100,1440,100c130,0,260,0,390-10h30c60,0,120,0,180-10c40-10,80-40,100-70c20-40,0-90-30-120
			C3100,4660,3040,4660,3030,4660z M1720,2200c-160-180-230-360-220-570c0-30,0-30,20-30c40-10,80-30,80-120c0-40,0-80,0-120
			c0-110,0-210,10-320c20-350,230-580,560-650c100-20,200-30,300-30c140,0,270,20,410,60c110,40,190,90,230,160c20,30,40,70,50,110
			c40,40,70,110,130,170c10,20,10,60,10,100v10c0,90,10,180,10,270v120c0,90,30,130,110,140c10,130-10,230-50,330s-100,180-170,260
			c-20,20-40,60-50,90c-50,190-130,340-240,460c-100,110-210,220-370,240c-210,30-390-30-550-200c-90-90-160-210-200-370l0,0
			C1780,2270,1760,2230,1720,2200z"/>
		<path fill="#EB8C00" d="M3840,3030L3840,3030c-250,0-470,90-640,260c-130,130-210,290-240,480l-100-10c0,0,0,0-10,0v50l-20,30
			c10,10,60,60,120,130v10h10c20,20,40,50,60,70l30,30l120-100l0,0l0,0l210-180l-200-10c70-290,350-530,660-530l0,0
			c170,0,350,70,470,200c130,130,200,300,200,480c0,360-320,670-670,670l0,0c-110,0-230-30-330-90l-60-30v260l20,10
			c110,50,240,80,360,80l0,0c240,0,470-90.001,640-260c170-170,260-390,260-640C4730,3420,4330,3030,3840,3030z"/>
		<path fill="#EB8C00" d="M3720,4040c30,30,80,30,150,30h170c50,0,100,0,140,0c60,0,120,0,170,0c70,0,120-50,120-110
			c0-70-50-110-120-120c-10,0-20,0-30,0h-420v-140c0-100,0-190,0-290c0-50-20-90-60-110c-30-20-70-20-109.999,0
			C3660,3330,3660,3400,3660,3420c0,130,0,260,0,390v80C3690,3960,3690,4010,3720,4040z"/>
	</g>
</g>
<g id="Layer_2">
	<path fill="none" stroke="#EB8C00" stroke-width="260" stroke-linecap="round" stroke-linejoin="round" stroke-miterlimit="10" d="
		M1500.5,1460.5c0,0-168.03-1239.877,912-1240c872-0.099,896,472,896,472s133.429-24.421,136,272c1.18,136,1.18,368,1.18,368
		s142.82,56,110.82,256s-16,400-168,480c0,0-345.541,920.598-944,928c-472,5.838-832-848-832-848s-236.964-75.802-240-488
		C1370.673,1412.5,1500.5,1460.5,1500.5,1460.5z"/>
	<path fill="none" stroke="#EB8C00" stroke-width="260" stroke-linecap="round" stroke-linejoin="round" stroke-miterlimit="10" d="
		M2024.375,2784.666c0,0-723.875,331.834-987.875,459.834s-456,256-568,528s-176,712-176,712s829.971,400,2846.387,240"/>
	
		<line fill="none" stroke="#EB8C00" stroke-width="260" stroke-linecap="round" stroke-linejoin="round" stroke-miterlimit="10" x1="2921.342" y1="2784.666" x2="3188.916" y2="2955.852"/>
	
		<polyline fill="none" stroke="#EB8C00" stroke-width="260" stroke-linecap="round" stroke-linejoin="round" stroke-miterlimit="10" points="
		3850.041,3516.57 3850.041,3985.029 4341.505,3985.029 	"/>
	<path fill="none" stroke="#EB8C00" stroke-width="260" stroke-linecap="round" stroke-linejoin="round" stroke-miterlimit="10" d="
		M3083.268,3769.842c90.486-399.754,464.623-681.189,884.322-644.501c458.03,40.04,796.879,443.806,756.84,901.836
		c-40.041,458.03-443.806,796.878-901.836,756.839c-106.532-9.312-206.619-38.303-296.99-83.074"/>
	<g>
		<polygon fill="#EB8C00" points="2798.775,3742.521 3395.742,3742.521 3097.26,4092.523 		"/>
	</g>
</g>
</svg>
