<?xml version="1.0" encoding="utf-8"?>
<!-- Generator: Adobe Illustrator 16.0.4, SVG Export Plug-In . SVG Version: 6.00 Build 0)  -->
<!DOCTYPE svg PUBLIC "-//W3C//DTD SVG 1.1//EN" "http://www.w3.org/Graphics/SVG/1.1/DTD/svg11.dtd">
<svg version="1.1" id="Layer_1" xmlns="http://www.w3.org/2000/svg" xmlns:xlink="http://www.w3.org/1999/xlink" x="0px" y="0px"
	 width="5000px" height="5000px" viewBox="0 0 5000 5000" enable-background="new 0 0 5000 5000" xml:space="preserve">
<g id="Layer_1_1_" display="none">
	<g display="inline">
		<path fill="#E5441F" d="M4424.883,1126.761c-23.475-234.741-164.318-375.587-399.061-375.587h-492.959c0,0,0,0-23.476,0l0,0
			c0-46.947,0-70.423,0-117.371c0-234.742-164.319-399.061-375.587-399.061c-422.535,0-845.07,0-1338.027,0
			c-164.318,23.474-305.164,164.318-328.639,328.639c0,46.947,0,117.37-23.477,164.318v23.475h-164.317
			c-117.371,0-234.741,0-352.112,0c-211.268,23.475-352.111,164.319-375.588,352.112c0,70.423,0,117.371,0,164.317
			c0,211.27,117.371,352.113,305.165,399.062V4154.93c0,46.949,0,93.896,0,117.371c23.476,187.793,187.793,328.641,352.112,328.641
			c422.533,0,845.068,0,1244.132,0c422.535,0,845.07,0,1244.132,0c164.316,0,281.688-93.896,328.639-234.742
			c23.476-46.948,23.476-117.371,23.476-211.27c0-610.328,0-1220.655,0-1830.984v-610.328c0-23.475,0-23.475,0-46.948
			c211.268-46.946,305.165-187.794,305.165-422.534C4424.883,1220.657,4424.883,1173.709,4424.883,1126.761z M4166.667,1220.657
			L4166.667,1220.657c0,140.845-23.476,187.794-164.319,187.794l0,0c-352.113,0-704.226,0-1056.338,0H950.704
			c-70.423,0-117.371-46.949-117.371-93.897s0-93.896,0-164.317c0-93.896,46.948-117.37,140.846-117.37l0,0h422.535
			c211.269,0,422.535,0,610.329,0h2018.779l0,0c93.896,0,140.845,46.946,140.845,140.845
			C4166.667,1197.184,4166.667,1197.184,4166.667,1220.657z M3133.803,516.432c93.896,0,140.846,46.949,140.846,140.848
			c0,46.947,0,70.422,0,117.369H1725.352l0,0c0-70.422,0-117.369,0-164.318c0-70.422,93.897-93.896,140.848-117.37h1150.232
			C3063.381,516.432,3086.854,516.432,3133.803,516.432z M3838.028,1666.667V4154.93c0,23.477,0,46.949,0,70.422
			c-23.477,70.424-46.948,93.897-117.371,93.897c-93.896,0-187.794,0-281.69,0h-2136.15c-117.37,0-164.317-46.948-164.317-164.319
			c0-821.597,0-1643.191,0-2488.264l0,0L3838.028,1666.667L3838.028,1666.667z"/>
		<path fill="#E5441F" d="M3392.02,4014.085L3392.02,4014.085c46.947,0,117.371-23.476,140.847-117.371c0-23.476,0-23.476,0-46.948
			v-328.639c0-422.535,0-845.07,0-1291.08c0-23.475,0-70.422-23.477-93.896c-23.474-46.946-46.948-70.423-93.896-93.896
			c-46.948,0-93.896,23.476-117.371,46.948c-23.476,23.474-23.476,70.423-23.476,117.371c0,211.268,0,422.535,0,633.803V3873.24
			C3251.174,3943.662,3298.122,3990.61,3392.02,4014.085z"/>
		<path fill="#E5441F" d="M1584.507,4014.085L1584.507,4014.085c70.423-23.476,140.845-46.948,140.845-164.319
			c0-281.688,0-563.381,0-821.597v-774.647c0-23.475,0-70.423,0-93.896c0-70.423-46.947-117.371-117.369-117.371
			c-70.424,0-117.371,46.948-140.846,117.371c0,23.474,0,46.948,0,70.422v1596.244c0,23.476,0,46.949,0,70.423
			C1467.137,3967.137,1514.084,4014.085,1584.507,4014.085z M1584.507,2089.202L1584.507,2089.202L1584.507,2089.202
			L1584.507,2089.202z"/>
		<path fill="#E5441F" d="M2382.629,3920.188c23.475,23.477,46.948,70.425,93.896,70.425H2500c23.475,0,46.948,0,70.423-23.476
			c23.476-23.475,46.948-46.949,46.948-93.896c0-23.476,0-23.476,0-70.423V2183.1c0-23.475,0-46.947-23.475-93.896
			c0,0-46.948-46.948-117.371-46.948c-23.476,0-70.422,23.476-93.896,70.424c-23.475,46.947-23.475,70.423-23.475,93.896v1619.719
			C2359.154,3873.239,2359.154,3896.714,2382.629,3920.188z"/>
	</g>
</g>
<g id="Layer_2">
	<path fill="none" stroke="#EB8C00" stroke-width="260" stroke-miterlimit="10" d="M4320.657,1292.264
		c0,173.487-140.64,314.127-314.128,314.127H993.471c-173.488,0-314.128-140.641-314.128-314.127l0,0
		c0-173.487,140.64-314.127,314.128-314.127h3013.061C4180.018,978.136,4320.657,1118.775,4320.657,1292.264L4320.657,1292.264z"/>
	<path fill="none" stroke="#EB8C00" stroke-width="260" stroke-miterlimit="10" d="M3998.188,4169.042
		c0,220.914-179.086,400-400,400H1401.812c-220.914,0-400-179.086-400-400V1606.391h2996.373v2562.651H3998.188z"/>
	<path fill="none" stroke="#EB8C00" stroke-width="260" stroke-miterlimit="10" d="M3402.261,830.958c0-220.914-179.087-400-400-400
		H1997.739c-220.914,0-400,179.086-400,400v147.178H3402.26L3402.261,830.958L3402.261,830.958z"/>
	<g>
		
			<line fill="none" stroke="#EB8C00" stroke-width="260" stroke-linecap="round" stroke-miterlimit="10" x1="1633.559" y1="2249.271" x2="1633.559" y2="3977.271"/>
		
			<line fill="none" stroke="#EB8C00" stroke-width="260" stroke-linecap="round" stroke-miterlimit="10" x1="2500" y1="2249.271" x2="2500" y2="3977.271"/>
		
			<line fill="none" stroke="#EB8C00" stroke-width="260" stroke-linecap="round" stroke-miterlimit="10" x1="3366.441" y1="2249.271" x2="3366.441" y2="3977.271"/>
	</g>
</g>
</svg>
