<?xml version="1.0" encoding="utf-8"?>
<!-- Generator: Adobe Illustrator 16.0.4, SVG Export Plug-In . SVG Version: 6.00 Build 0)  -->
<!DOCTYPE svg PUBLIC "-//W3C//DTD SVG 1.1//EN" "http://www.w3.org/Graphics/SVG/1.1/DTD/svg11.dtd">
<svg version="1.1" id="Layer_1" xmlns="http://www.w3.org/2000/svg" xmlns:xlink="http://www.w3.org/1999/xlink" x="0px" y="0px"
	 width="5000px" height="5000px" viewBox="0 0 5000 5000" enable-background="new 0 0 5000 5000" xml:space="preserve">
<g id="Layer_2">
	<path fill="none" stroke="#EB8C00" stroke-width="260" stroke-miterlimit="10" d="M4320.657,1292.264
		c0,173.487-140.64,314.127-314.128,314.127H993.471c-173.488,0-314.128-140.641-314.128-314.127l0,0
		c0-173.487,140.64-314.127,314.128-314.127h3013.061C4180.018,978.136,4320.657,1118.775,4320.657,1292.264L4320.657,1292.264z"/>
	<path fill="none" stroke="#EB8C00" stroke-width="260" stroke-miterlimit="10" d="M3998.188,4169.042
		c0,220.914-179.086,400-400,400H1401.812c-220.914,0-400-179.086-400-400V1606.391h2996.373v2562.651H3998.188z"/>
	<path fill="none" stroke="#EB8C00" stroke-width="260" stroke-miterlimit="10" d="M3402.261,830.958c0-220.914-179.087-400-400-400
		H1997.739c-220.914,0-400,179.086-400,400v147.178H3402.26L3402.261,830.958L3402.261,830.958z"/>
	<g>
		
			<line fill="none" stroke="#EB8C00" stroke-width="260" stroke-linecap="round" stroke-miterlimit="10" x1="1633.559" y1="2249.271" x2="1633.559" y2="3977.271"/>
		
			<line fill="none" stroke="#EB8C00" stroke-width="260" stroke-linecap="round" stroke-miterlimit="10" x1="2500" y1="2249.271" x2="2500" y2="3977.271"/>
		
			<line fill="none" stroke="#EB8C00" stroke-width="260" stroke-linecap="round" stroke-miterlimit="10" x1="3366.441" y1="2249.271" x2="3366.441" y2="3977.271"/>
	</g>
</g>
</svg>
