<?xml version="1.0" encoding="utf-8"?>
<!-- Generator: Adobe Illustrator 16.0.4, SVG Export Plug-In . SVG Version: 6.00 Build 0)  -->
<!DOCTYPE svg PUBLIC "-//W3C//DTD SVG 1.1//EN" "http://www.w3.org/Graphics/SVG/1.1/DTD/svg11.dtd">
<svg version="1.1" id="Layer_1" xmlns="http://www.w3.org/2000/svg" xmlns:xlink="http://www.w3.org/1999/xlink" x="0px" y="0px"
	 width="5000px" height="5000px" viewBox="0 0 5000 5000" enable-background="new 0 0 5000 5000" xml:space="preserve">
<g id="Layer_1_1_" display="none">
	<title>Email</title>
	<path display="inline" d="M0,3978.571c0-983.333,0-1966.667,0-2950v-35.714c22.306-95.528,92.629-172.614,185.714-203.572
		l50-17.856H4753.57l0,0c150.582,23.868,254.965,163.044,235.715,314.286c0,952.381,0,1898.809,0,2839.285
		c2.959,24.912,2.959,50.088,0,75c-29.865,137.34-156.26,231.755-296.431,221.43h-4400c-135.374,4.6-254.436-88.842-282.143-221.43
		C7.617,3992.63,4.038,3985.472,0,3978.571z M332.143,960.715L375,1003.571l953.571,917.854L2150,2707.143
		c184.176,192.313,489.381,198.911,681.693,14.735c5.018-4.805,9.93-9.718,14.732-14.735L4632.143,992.857l35.715-39.286H332.143
		V960.715z M1800,2628.571L332.143,4035.715H4675L3207.143,2628.571l-214.282,203.571
		c-250.062,271.142-672.58,288.229-943.724,38.168c-12.037-11.104-23.662-22.644-34.852-34.599L1800,2628.571z M1657.143,2500
		L192.857,1085.715v2825L1657.143,2500z M4803.57,1089.286L3339.285,2500l1471.43,1410.715V1089.286H4803.57z"/>
</g>
<g id="Layer_2">
	<path fill="none" stroke="#EB8C00" stroke-width="250" stroke-miterlimit="10" d="M399.081,1262.672
		c0-95.541,77.451-172.992,172.992-172.992h3855.854c95.541,0,172.992,77.451,172.992,172.992v2474.656
		c0,95.541-77.451,172.992-172.992,172.992H572.073c-95.541,0-172.992-77.451-172.992-172.992V1262.672z"/>
	<g>
		
			<line fill="none" stroke="#EB8C00" stroke-width="250" stroke-miterlimit="10" x1="1913.082" y1="2464.1" x2="484.188" y2="3892.994"/>
		
			<line fill="none" stroke="#EB8C00" stroke-width="250" stroke-miterlimit="10" x1="3088.146" y1="2464.1" x2="4515.812" y2="3891.764"/>
	</g>
	<path fill="none" stroke="#EB8C00" stroke-width="250" stroke-miterlimit="10" d="M4483.146,1108.422L2853.553,2738.014
		c-195.262,195.264-511.844,195.264-707.104,0L503.135,1094.704"/>
</g>
</svg>
