<?xml version="1.0" encoding="utf-8"?>
<!-- Generator: Adobe Illustrator 16.0.4, SVG Export Plug-In . SVG Version: 6.00 Build 0)  -->
<!DOCTYPE svg PUBLIC "-//W3C//DTD SVG 1.1//EN" "http://www.w3.org/Graphics/SVG/1.1/DTD/svg11.dtd">
<svg version="1.1" id="Layer_2" xmlns="http://www.w3.org/2000/svg" xmlns:xlink="http://www.w3.org/1999/xlink" x="0px" y="0px"
	 width="5000px" height="5000px" viewBox="0 0 5000 5000" enable-background="new 0 0 5000 5000" xml:space="preserve">
<g>
	<g>
		<path fill="none" stroke="#EB8C00" stroke-width="250" stroke-linecap="round" stroke-miterlimit="10" d="M1892.105,4089.255
			C968.677,3661.354,501.157,2595.053,840.729,1612.395c26.185-75.771,56.449-148.971,90.465-219.437"/>
		<polyline fill="none" stroke="#EB8C00" stroke-width="250" stroke-linecap="round" stroke-miterlimit="10" points="
			1341.518,1920.162 916.898,1335.912 233.009,1624.895 		"/>
	</g>
	<g>
		<path fill="none" stroke="#EB8C00" stroke-width="250" stroke-linecap="round" stroke-miterlimit="10" d="M4738.909,2090.809
			c91.142,1013.664-598.542,1951.698-1619.336,2148.951c-78.711,15.209-157.235,25.598-235.271,31.372"/>
		<polyline fill="none" stroke="#EB8C00" stroke-width="250" stroke-linecap="round" stroke-miterlimit="10" points="
			3135.714,3652.18 2842.046,4312.035 3434.259,4759.812 		"/>
	</g>
	<g>
		<path fill="none" stroke="#EB8C00" stroke-width="250" stroke-linecap="round" stroke-miterlimit="10" d="M1584.803,624.629
			c832.288-585.763,1989.491-457.496,2670.713,327.91c52.525,60.561,100.787,123.371,144.805,188.064"/>
		<polyline fill="none" stroke="#EB8C00" stroke-width="250" stroke-linecap="round" stroke-miterlimit="10" points="
			3738.587,1232.352 4456.872,1156.747 4548.552,419.987 		"/>
	</g>
</g>
</svg>
