<?xml version="1.0" encoding="utf-8"?>
<!-- Generator: Adobe Illustrator 16.0.4, SVG Export Plug-In . SVG Version: 6.00 Build 0)  -->
<!DOCTYPE svg PUBLIC "-//W3C//DTD SVG 1.1//EN" "http://www.w3.org/Graphics/SVG/1.1/DTD/svg11.dtd">
<svg version="1.1" id="Layer_1" xmlns="http://www.w3.org/2000/svg" xmlns:xlink="http://www.w3.org/1999/xlink" x="0px" y="0px"
	 width="5000px" height="5000px" viewBox="0 0 5000 5000" enable-background="new 0 0 5000 5000" xml:space="preserve">
<g>
	
		<path fill="none" stroke="#EB8C00" stroke-width="268.2652" stroke-linecap="round" stroke-linejoin="round" stroke-miterlimit="10" d="
		M2066.453,583.584c0-239.441,194.104-433.544,433.547-433.544c239.439,0,433.545,194.104,433.545,433.544"/>
	
		<path fill="none" stroke="#EB8C00" stroke-width="268.2652" stroke-linecap="round" stroke-linejoin="round" stroke-miterlimit="10" d="
		M2500,504.306c718.323,0,1300.637,582.313,1300.637,1300.635c0,909.196,364.182,1646.245,813.426,1646.245l38.815,522.832
		c-656.879,102.396-1385.646,159.375-2152.879,159.375c-767.231,0-1495.999-56.979-2152.878-159.373l38.816-522.832
		c449.244,0,813.425-737.05,813.425-1646.245C1199.362,1086.618,1781.678,504.306,2500,504.306"/>
	
		<path fill="none" stroke="#EB8C00" stroke-width="268.2652" stroke-linecap="round" stroke-linejoin="round" stroke-miterlimit="10" d="
		M3051.263,4123.482c13.695,49.058,21.02,100.772,21.02,154.199c0,316.062-256.22,572.276-572.28,572.276
		c-316.062,0-572.281-256.216-572.281-572.276c0-53.426,7.32-105.144,21.016-154.199"/>
</g>
</svg>
