<?xml version="1.0" encoding="utf-8"?>
<!-- Generator: Adobe Illustrator 16.0.4, SVG Export Plug-In . SVG Version: 6.00 Build 0)  -->
<!DOCTYPE svg PUBLIC "-//W3C//DTD SVG 1.1//EN" "http://www.w3.org/Graphics/SVG/1.1/DTD/svg11.dtd">
<svg version="1.1" id="Layer_3" xmlns="http://www.w3.org/2000/svg" xmlns:xlink="http://www.w3.org/1999/xlink" x="0px" y="0px"
	 width="5000px" height="5000px" viewBox="0 0 5000 5000" enable-background="new 0 0 5000 5000" xml:space="preserve">
<path fill="none" stroke="#EB8C00" stroke-width="289.5615" stroke-miterlimit="10" d="M1502.424,2042.042
	c-108.492,108.492,133.166,526.046,539.757,932.636c406.591,406.594,824.149,648.25,932.642,539.758l12.224-13.157l463.223-463.222
	c144.271-144.271,378.181-144.271,522.449,0l745.345,745.344c144.27,144.271,144.27,378.179,0,522.451l-306.396,306.395
	l-10.592,10.593c-530.957,530.956-1858.64,64.126-2965.463-1042.698C328.787,2473.321-138.042,1145.638,392.914,614.684
	l10.593-10.594l306.395-306.395c144.271-144.271,378.179-144.271,522.449,0l745.344,745.344
	c144.271,144.271,144.271,378.179,0,522.448l-463.221,463.222L1502.424,2042.042z"/>
</svg>
