<?xml version="1.0" encoding="utf-8"?>
<!-- Generator: Adobe Illustrator 16.0.4, SVG Export Plug-In . SVG Version: 6.00 Build 0)  -->
<!DOCTYPE svg PUBLIC "-//W3C//DTD SVG 1.1//EN" "http://www.w3.org/Graphics/SVG/1.1/DTD/svg11.dtd">
<svg version="1.1" id="Layer_1" xmlns="http://www.w3.org/2000/svg" xmlns:xlink="http://www.w3.org/1999/xlink" x="0px" y="0px"
	 width="5000px" height="5000px" viewBox="0 0 5000 5000" enable-background="new 0 0 5000 5000" xml:space="preserve">
<g>
	<g>
		<path d="M3345.588,3069.853C3198.529,3094.363,3125,3204.657,3125,3388.48c0,196.078,98.039,318.627,257.354,318.627
			c73.529,0,134.804-24.51,269.607-85.784v159.313c-159.313,73.529-257.354,98.039-392.157,98.039
			c-147.059,0-245.098-36.764-330.882-122.549c-85.785-85.784-122.549-196.078-122.549-318.627
			c0-281.863,208.333-465.687,502.45-465.687c196.079,0,330.883,85.784,330.883,220.588c0,85.784-61.274,147.06-159.313,147.06
			c-49.02,0-85.785-12.256-134.805-36.765V3069.853L3345.588,3069.853z"/>
		<path d="M2610.294,3437.5c134.804-171.568,183.823-232.843,183.823-318.627c0-85.785-61.274-147.06-147.059-147.06
			c-49.02,0-98.039,24.51-122.549,49.02v343.138l-220.588,294.117v-661.765h-208.334l-343.137,563.726v-563.726h-122.549
			l-306.373,73.529v85.784l171.568,12.256v698.529h220.588l330.883-539.216v539.216h245.098L2610.294,3437.5z"/>
		<path d="M661.765,3756.127c24.51,0,36.765,0,49.02,0c183.823,0,269.608-110.293,269.608-318.627
			c0-183.823-73.529-269.607-220.589-269.607c-24.51,0-49.02,0-98.039,12.254V3756.127z M661.765,4136.029l147.059,36.765v85.784
			H245.098v-85.784l122.548-36.765v-980.393H232.843v-85.784l343.137-98.039h85.784v110.294
			c159.313-98.039,220.589-110.294,294.118-110.294c183.823,0,330.882,171.569,330.882,416.667
			c0,281.862-183.823,465.686-477.941,465.686c-36.765,0-85.784,0-147.059-12.254V4136.029z"/>
	</g>
	<rect x="2303.922" y="2261.029" fill="#AD1A03" width="857.843" height="208.334"/>
	<rect x="3161.521" y="1832.357" fill="#AD1A03" width="526.961" height="428.672"/>
	<rect x="3161.521" y="1194.854" fill="#D85604" width="857.839" height="637.504"/>
	<rect x="3161.521" y="1623.774" fill="#C14304" width="526.961" height="208.583"/>
	<rect x="3688.482" y="1832.357" fill="#C22303" width="330.883" height="428.672"/>
	<rect x="4019.365" y="1832.357" fill="#D1390C" width="159.312" height="428.672"/>
	<rect x="4178.678" y="1832.357" fill="#DB4E18" width="428.922" height="428.672"/>
	<rect x="4607.6" y="1832.357" fill="#E669A2" width="220.589" height="428.921"/>
	<rect x="4178.674" y="1194.854" fill="#F3BE25" width="428.926" height="637.504"/>
	<rect x="4019.36" y="1194.854" fill="#E88D13" width="159.313" height="637.504"/>
	<rect x="3161.521" y="937.5" fill="#E3721C" width="857.839" height="257.354"/>
	<rect x="4019.36" y="937.5" fill="#F3BC87" width="159.313" height="257.354"/>
	<rect x="3161.521" y="765.932" fill="#EE9C34" width="857.839" height="171.568"/>
</g>
</svg>
