<?xml version="1.0" encoding="utf-8"?>
<!-- Generator: Adobe Illustrator 16.0.4, SVG Export Plug-In . SVG Version: 6.00 Build 0)  -->
<!DOCTYPE svg PUBLIC "-//W3C//DTD SVG 1.1//EN" "http://www.w3.org/Graphics/SVG/1.1/DTD/svg11.dtd">
<svg version="1.1" id="Layer_2" xmlns="http://www.w3.org/2000/svg" xmlns:xlink="http://www.w3.org/1999/xlink" x="0px" y="0px"
	 width="5000px" height="5000px" viewBox="0 0 5000 5000" enable-background="new 0 0 5000 5000" xml:space="preserve">
<g>
	<circle fill="none" stroke="#EB8C00" stroke-width="250" stroke-miterlimit="10" cx="2499.999" cy="2500" r="2326.688"/>
	<g>
		<circle fill="none" stroke="#EB8C00" stroke-width="150" stroke-miterlimit="10" cx="1423.266" cy="1644.485" r="221.612"/>
		<circle fill="none" stroke="#EB8C00" stroke-width="150" stroke-miterlimit="10" cx="2428.502" cy="1644.485" r="221.612"/>
		<path fill="none" stroke="#EB8C00" stroke-width="150" stroke-miterlimit="10" d="M1024.471,2454.516
			c0-220.248,178.547-398.793,398.794-398.793c220.248,0,398.794,178.545,398.794,398.793"/>
		<path fill="none" stroke="#EB8C00" stroke-width="150" stroke-miterlimit="10" d="M2029.708,2454.516
			c0-220.248,178.546-398.793,398.794-398.793s398.793,178.545,398.793,398.793"/>
		<circle fill="none" stroke="#EB8C00" stroke-width="150" stroke-miterlimit="10" cx="3445.965" cy="1644.485" r="221.612"/>
		<path fill="none" stroke="#EB8C00" stroke-width="150" stroke-miterlimit="10" d="M3047.171,2454.516
			c0-220.248,178.546-398.793,398.794-398.793s398.793,178.545,398.793,398.793"/>
		
			<polygon fill="none" stroke="#EB8C00" stroke-width="170" stroke-linecap="round" stroke-linejoin="round" stroke-miterlimit="10" points="
			4162.438,2624.993 834.996,2624.986 662.996,3336.986 4337.002,3336.986 		"/>
		<circle fill="#EB8C00" cx="2565.929" cy="2893.172" r="90"/>
		<circle fill="#EB8C00" cx="2895.929" cy="2893.172" r="90"/>
		<circle fill="#EB8C00" cx="3225.929" cy="2893.172" r="90"/>
	</g>
</g>
</svg>
