<?xml version="1.0" encoding="utf-8"?>
<!-- Generator: Adobe Illustrator 16.0.4, SVG Export Plug-In . SVG Version: 6.00 Build 0)  -->
<!DOCTYPE svg PUBLIC "-//W3C//DTD SVG 1.1//EN" "http://www.w3.org/Graphics/SVG/1.1/DTD/svg11.dtd">
<svg version="1.1" id="Layer_2" xmlns="http://www.w3.org/2000/svg" xmlns:xlink="http://www.w3.org/1999/xlink" x="0px" y="0px"
	 width="5000px" height="5000px" viewBox="0 0 5000 5000" enable-background="new 0 0 5000 5000" xml:space="preserve">
<circle fill="none" stroke="#EB8C00" stroke-width="300" stroke-linecap="round" stroke-linejoin="round" stroke-miterlimit="10" cx="2500" cy="2500" r="652.749"/>
<polygon fill="none" stroke="#EB8C00" stroke-width="300" stroke-linecap="round" stroke-linejoin="round" stroke-miterlimit="10" points="
	2215.073,612.13 2784.927,612.13 2891.404,1061.285 3240.561,1205.91 3633.452,963.602 4036.398,1366.548 3794.09,1759.439 
	3938.715,2108.596 4387.87,2215.074 4387.87,2784.928 3938.715,2891.404 3794.09,3240.561 4036.398,3633.453 3633.452,4036.4 
	3240.561,3794.09 2891.404,3938.715 2784.927,4387.871 2215.073,4387.871 2108.596,3938.715 1759.439,3794.09 1366.548,4036.4 
	963.602,3633.453 1205.91,3240.561 1061.285,2891.404 612.13,2784.928 612.13,2215.074 1061.285,2108.596 1205.91,1759.439 
	963.602,1366.548 1366.548,963.602 1759.439,1205.91 2108.596,1061.285 "/>
</svg>
