<?xml version="1.0" encoding="utf-8"?>
<!-- Generator: Adobe Illustrator 16.0.4, SVG Export Plug-In . SVG Version: 6.00 Build 0)  -->
<!DOCTYPE svg PUBLIC "-//W3C//DTD SVG 1.1//EN" "http://www.w3.org/Graphics/SVG/1.1/DTD/svg11.dtd">
<svg version="1.1" id="Layer_1" xmlns="http://www.w3.org/2000/svg" xmlns:xlink="http://www.w3.org/1999/xlink" x="0px" y="0px"
	 width="5000px" height="5000px" viewBox="0 0 5000 5000" enable-background="new 0 0 5000 5000" xml:space="preserve">
<g id="Layer_1_1_">
	<g>
		<g>
			<path fill="#EB8C00" d="M3916.667,666.667L3950,1433.334h-100c-33.334-133.334-33.334-233.334-66.667-300.001
				c-66.666-100-133.333-166.666-200-199.999c-66.667-33.334-200-66.667-333.333-66.667h-466.667V3400
				c0,200,33.334,333.334,66.667,366.667c66.666,66.667,166.667,100,300,100h100v100H1850v-100h133.333
				c133.334,0,233.334-33.333,300-133.333c33.334-66.667,66.667-166.667,66.667-366.667v-2500h-433.333
				c-166.668,0-266.668,0-333.334,33.333c-100,33.333-166.666,100-233.333,200s-66.667,200-100,333.334h-100l66.667-766.667
				H3916.667z"/>
		</g>
	</g>
	
		<line fill="none" stroke="#EB8C00" stroke-width="300" stroke-linecap="round" stroke-miterlimit="10" x1="1084" y1="4383.334" x2="3916" y2="4383.334"/>
</g>
<g id="Layer_2">
</g>
</svg>
