<?xml version="1.0" encoding="utf-8"?>
<!-- Generator: Adobe Illustrator 16.0.4, SVG Export Plug-In . SVG Version: 6.00 Build 0)  -->
<!DOCTYPE svg PUBLIC "-//W3C//DTD SVG 1.1//EN" "http://www.w3.org/Graphics/SVG/1.1/DTD/svg11.dtd">
<svg version="1.1" id="Layer_1" xmlns="http://www.w3.org/2000/svg" xmlns:xlink="http://www.w3.org/1999/xlink" x="0px" y="0px"
	 width="5000px" height="5000px" viewBox="0 0 5000 5000" enable-background="new 0 0 5000 5000" xml:space="preserve">
<path fill="none" stroke="#EB8C00" stroke-width="300" stroke-linecap="round" stroke-linejoin="round" stroke-miterlimit="10" d="
	M424.414,4764.125h4151.172c0-785.84-1139.773-1091.783-1301.742-1163.768c-161.967-71.984-203.959-221.955-203.959-371.927
	c0-149.969,0-341.932,0-341.932c221.955-245.949,209.959-509.897,209.959-509.897s77.984-35.993,173.965-245.951
	c95.982-209.958-59.985-329.935-59.985-329.935s95.979-377.925,95.979-545.892c0-899.819-497.897-797.816-497.897-797.816
	c0-264.793-1475.707-539.915-1475.707,767.823c0,263.947,65.988,575.886,65.988,575.886s-143.972,65.984-59.988,299.938
	c83.982,233.953,179.963,299.939,179.963,299.939s11.997,299.941,257.949,539.893c0,0,6,161.967,6,275.945
	c0,113.977-65.988,299.938-227.956,377.924S424.414,3930.295,424.414,4764.125z"/>
</svg>
