<?xml version="1.0" encoding="utf-8"?>
<!-- Generator: Adobe Illustrator 16.0.4, SVG Export Plug-In . SVG Version: 6.00 Build 0)  -->
<!DOCTYPE svg PUBLIC "-//W3C//DTD SVG 1.1//EN" "http://www.w3.org/Graphics/SVG/1.1/DTD/svg11.dtd">
<svg version="1.1" id="Layer_2" xmlns="http://www.w3.org/2000/svg" xmlns:xlink="http://www.w3.org/1999/xlink" x="0px" y="0px"
	 width="5000px" height="5000px" viewBox="0 0 5000 5000" enable-background="new 0 0 5000 5000" xml:space="preserve">
<path fill="none" stroke="#666666" stroke-width="300" stroke-linecap="round" stroke-linejoin="round" stroke-miterlimit="10" d="
	M424.415,4764.126h4151.171c0-785.841-1139.773-1091.783-1301.742-1163.769c-161.967-71.983-203.959-221.955-203.959-371.927
	c0-149.97,0-341.932,0-341.932c221.955-245.95,209.959-509.897,209.959-509.897s77.984-35.992,173.965-245.95
	c95.982-209.958-59.984-329.936-59.984-329.936s95.979-377.925,95.979-545.892c0-899.819-497.896-797.815-497.896-797.815
	c0-264.794-1475.707-539.916-1475.707,767.822c0,263.947,65.988,575.885,65.988,575.885s-143.973,65.985-59.988,299.938
	c83.982,233.953,179.963,299.939,179.963,299.939s11.997,299.94,257.947,539.894c0,0,6,161.967,6,275.944
	c0,113.977-65.986,299.938-227.954,377.925C1576.188,3672.342,424.415,3930.295,424.415,4764.126z"/>
</svg>
