<?xml version="1.0" encoding="utf-8"?>
<!-- Generator: Adobe Illustrator 16.0.4, SVG Export Plug-In . SVG Version: 6.00 Build 0)  -->
<!DOCTYPE svg PUBLIC "-//W3C//DTD SVG 1.1//EN" "http://www.w3.org/Graphics/SVG/1.1/DTD/svg11.dtd">
<svg version="1.1" id="Layer_2" xmlns="http://www.w3.org/2000/svg" xmlns:xlink="http://www.w3.org/1999/xlink" x="0px" y="0px"
	 width="5000px" height="5000px" viewBox="0 0 5000 5000" enable-background="new 0 0 5000 5000" xml:space="preserve">
<g>
	<circle fill="none" stroke="#EB8C00" stroke-width="300" stroke-miterlimit="10" cx="2500" cy="2500" r="2304.5"/>
	<path fill="none" stroke="#EB8C00" stroke-width="150" stroke-linecap="round" stroke-linejoin="round" stroke-miterlimit="10" d="
		M4108.105,4150.66c-276.68-341.701-823.727-493.098-923.674-537.518c-134.883-59.947-169.853-184.843-169.853-309.732
		c0-124.895,0-284.755,0-284.755c184.84-204.823,174.85-424.635,174.85-424.635s64.944-29.976,144.875-204.823
		c79.933-174.85-49.955-274.763-49.955-274.763s79.929-314.729,79.929-454.608c0-749.354-414.641-664.407-414.641-664.407
		c0-220.516-1228.941-449.632-1228.941,639.431c0,219.81,54.954,479.586,54.954,479.586s-119.896,54.951-49.957,249.783
		c69.939,194.832,149.87,249.787,149.87,249.787s9.991,249.784,214.814,449.611c0,0,4.997,134.883,4.997,229.801
		c0,94.92-54.953,249.785-189.837,314.729c-105.125,50.616-710.94,192.269-973.143,581.043"/>
</g>
</svg>
